# xmcd
#
# Track frame offsets:
#	150
#	28623
#	44299
#	58322
#	75068
#	88185
#	105102
#	126679
#	141899
#	156795
#
# Disc length: 2319 seconds
#
# Revision: 1
# Processed by: cddbd v1.5.2PL0 Copyright (c) Steve Scherf et al.
# Submitted via: audiograbber 1.83.01
#
DISCID=7c090d0a
DTITLE=Sam Dees - The Show Must Go On
DYEAR=1975
DGENRE=Soul
TTITLE0=Child Of The Streets
TTITLE1=The Show Must Go On
TTITLE2=Come Back Strong
TTITLE3=Just Out of Reach
TTITLE4=Claim Jumpin'
TTITLE5=Troubled Child
TTITLE6=What's It Gonna Be
TTITLE7=Worn Out Broken Heart
TTITLE8=Good Guys
TTITLE9=So Tied Up
EXTD=
EXTT0=
EXTT1=
EXTT2=
EXTT3=
EXTT4=
EXTT5=
EXTT6=
EXTT7=
EXTT8=
EXTT9=
PLAYORDER=
